HIERARCHY
ROOT Hips
{
	OFFSET 0.000000 0.000000 0.000000
	CHANNELS 6 Xposition Yposition Zposition Xrotation Yrotation Zrotation
	JOINT LeftUpLeg_virtual
	{
		OFFSET 0.000000 0.000000 0.000000
		CHANNELS 3 Xrotation Yrotation Zrotation
		JOINT LeftUpLeg
		{
			OFFSET 15.427100 -6.655098 0.678600
			CHANNELS 3 Xrotation Yrotation Zrotation
			JOINT LeftLeg
			{
				OFFSET 4.081073 -39.591068 13.024000
				CHANNELS 3 Xrotation Yrotation Zrotation
				JOINT LeftFoot
				{
					OFFSET -4.081074 -37.707932 -15.979700
					CHANNELS 3 Xrotation Yrotation Zrotation
					JOINT LeftToeBase
					{
						OFFSET 5.346399 -15.068900 20.645000
						CHANNELS 3 Xrotation Yrotation Zrotation
						JOINT LeftToe_End
						{
							OFFSET 2.754700 0.931300 11.300900
							CHANNELS 3 Xrotation Yrotation Zrotation
							End Site
							{
								OFFSET 0 0 0
							}
						}
					}
				}
			}
		}
	}
	JOINT RightUpLeg_virtual
	{
		OFFSET 0.000000 0.000000 0.000000
		CHANNELS 3 Xrotation Yrotation Zrotation
		JOINT RightUpLeg
		{
			OFFSET -15.569500 -6.655098 0.678600
			CHANNELS 3 Xrotation Yrotation Zrotation
			JOINT RightLeg
			{
				OFFSET -4.081825 -39.591045 13.023800
				CHANNELS 3 Xrotation Yrotation Zrotation
				JOINT RightFoot
				{
					OFFSET 4.081824 -37.707954 -15.979600
					CHANNELS 3 Xrotation Yrotation Zrotation
					JOINT RightToeBase
					{
						OFFSET -5.346400 -15.068900 20.645000
						CHANNELS 3 Xrotation Yrotation Zrotation
						JOINT RightToe_End
						{
							OFFSET -2.754700 0.931300 11.300900
							CHANNELS 3 Xrotation Yrotation Zrotation
							End Site
							{
								OFFSET 0 0 0
							}
						}
					}
				}
			}
		}
	}
	JOINT Spine_virtual
	{
		OFFSET 0.000000 0.000000 0.000000
		CHANNELS 3 Xrotation Yrotation Zrotation
		JOINT Spine
		{
			OFFSET -0.279200 12.230698 -2.892100
			CHANNELS 3 Xrotation Yrotation Zrotation
			JOINT Spine1
			{
				OFFSET -0.232667 10.192268 -1.242267
				CHANNELS 3 Xrotation Yrotation Zrotation
				JOINT Spine1_split
				{
					OFFSET -0.232667 10.192268 -1.242267
					CHANNELS 3 Xrotation Yrotation Zrotation
					JOINT Spine2
					{
						OFFSET -0.232667 10.192268 -1.242267
						CHANNELS 3 Xrotation Yrotation Zrotation
						JOINT Neck_virtual
						{
							OFFSET 0.000000 0.000000 0.000000
							CHANNELS 3 Xrotation Yrotation Zrotation
							JOINT Neck
							{
								OFFSET -0.418800 17.814194 8.416900
								CHANNELS 3 Xrotation Yrotation Zrotation
								JOINT Head
								{
									OFFSET 0.000000 7.031097 3.806800
									CHANNELS 3 Xrotation Yrotation Zrotation
									JOINT HeadTop_End
									{
										OFFSET 0.000000 24.646606 12.978600
										CHANNELS 3 Xrotation Yrotation Zrotation
										End Site
										{
											OFFSET 0 0 0
										}
									}
								}
							}
						}
						JOINT LeftShoulder_virtual
						{
							OFFSET 0.000000 0.000000 0.000000
							CHANNELS 3 Xrotation Yrotation Zrotation
							JOINT LeftShoulder
							{
								OFFSET 8.476499 7.247704 -3.868750
								CHANNELS 3 Xrotation Yrotation Zrotation
								JOINT LeftShoulder_split
								{
									OFFSET 8.476499 7.247704 -3.868750
									CHANNELS 3 Xrotation Yrotation Zrotation
									JOINT LeftArm
									{
										OFFSET 9.308998 -2.777710 0.208600
										CHANNELS 3 Xrotation Yrotation Zrotation
										JOINT LeftForeArm
										{
											OFFSET 29.972298 0.000000 0.000000
											CHANNELS 3 Xrotation Yrotation Zrotation
											JOINT LeftHand
											{
												OFFSET 26.026505 0.000000 0.000000
												CHANNELS 3 Xrotation Yrotation Zrotation
												End Site
												{
													OFFSET 0 0 0
												}
											}
										}
									}
								}
							}
						}
						JOINT RightShoulder_virtual
						{
							OFFSET 0.000000 0.000000 0.000000
							CHANNELS 3 Xrotation Yrotation Zrotation
							JOINT RightShoulder
							{
								OFFSET -7.570500 7.247704 -3.868750
								CHANNELS 3 Xrotation Yrotation Zrotation
								JOINT RightShoulder_split
								{
									OFFSET -7.570500 7.247704 -3.868750
									CHANNELS 3 Xrotation Yrotation Zrotation
									JOINT RightArm
									{
										OFFSET -9.308998 -2.777710 0.208500
										CHANNELS 3 Xrotation Yrotation Zrotation
										JOINT RightForeArm
										{
											OFFSET -29.972300 0.000000 0.000000
											CHANNELS 3 Xrotation Yrotation Zrotation
											JOINT RightHand
											{
												OFFSET -26.026505 0.000000 0.000000
												CHANNELS 3 Xrotation Yrotation Zrotation
												End Site
												{
													OFFSET 0 0 0
												}
											}
										}
									}
								}
							}
						}
					}
				}
			}
		}
	}
}
MOTION
Frames: 7
Frame Time: 0.03333333
13.827981 86.272934 -3.509422 0.000000 0.000000 0.000000 2.189864 -44.995845 2.436458 -10.082548 16.675063 2.195278 32.590610 19.799335 3.996947 -13.418988 18.048749 -15.999020 -2.286455 -0.983362 -2.122914 0.000000 0.000000 0.000000 2.421445 -44.921638 2.739895 -14.015161 -39.655737 -16.961564 31.409465 -6.405762 -6.031361 -18.680385 -5.649873 12.366979 -8.316420 1.946664 3.566302 0.000000 0.000000 0.000000 4.060043 -43.326547 2.878668 10.453648 -7.156667 2.523889 2.851427 -2.118066 -1.885723 -0.189975 0.075978 0.828174 0.000000 0.000000 0.000000 -7.881676 -3.937406 -0.792840 -9.364549 -5.075133 -4.990895 10.566302 -22.695646 8.220219 0.000000 0.000000 0.000000 -8.835092 -3.962215 -1.178751 -0.816360 2.275298 -6.713678 0.801460 -2.590485 1.673708 9.708883 5.142418 -58.899283 -0.941030 -45.681364 0.138713 0.000000 0.000000 0.000000 -8.928130 -4.289185 -1.078489 -1.147084 -1.624699 5.854781 -3.143306 -4.215747 -2.258456 7.528410 18.519131 71.752278 0.062842 49.300685 1.540094 0.000000 0.000000 0.000000 
13.542268 85.989136 -4.111172 0.000000 0.000000 0.000000 1.040617 -48.403946 2.186578 -8.694490 17.504554 2.180593 33.573255 20.415787 3.619903 -14.018862 18.977242 -15.875579 -2.345660 -0.663593 -2.568588 0.000000 0.000000 0.000000 1.518578 -48.352760 2.579014 -12.589454 -39.917528 -16.631224 29.786991 -7.200839 -6.169665 -19.206572 -6.999855 12.698184 -7.920997 1.976126 3.067563 0.000000 0.000000 0.000000 3.144412 -46.603986 2.701925 10.440146 -7.132185 2.306859 2.615068 -1.913629 -1.700985 -0.218653 -0.096060 0.917350 0.000000 0.000000 0.000000 -8.126603 -3.784055 -0.612361 -9.042111 -4.177806 -5.132412 10.980651 -20.951621 7.790473 0.000000 0.000000 0.000000 -9.065465 -3.773197 -1.011271 -0.737278 2.070387 -6.611831 0.772376 -2.987412 1.791236 9.091975 4.899170 -58.440000 -1.057762 -44.930975 0.162904 0.000000 0.000000 0.000000 -9.134817 -4.105805 -0.920787 -1.357888 -0.778431 5.765595 -3.199503 -4.177151 -2.247364 7.146304 17.167231 72.044446 0.004409 47.842053 1.593939 0.000000 0.000000 0.000000 
13.090156 85.833969 -4.769932 0.000000 0.000000 0.000000 -0.159667 -51.658189 1.604418 -8.137585 18.594632 2.971305 34.992012 20.786494 3.221164 -14.075872 19.374216 -15.625859 -2.742057 -0.419706 -3.185388 0.000000 0.000000 0.000000 0.302852 -51.372687 1.964335 -11.654485 -39.772803 -16.172109 28.081937 -7.598661 -6.095779 -19.228827 -7.602994 13.028941 -8.511429 2.017677 2.566482 0.000000 0.000000 0.000000 2.229686 -49.579879 2.309255 10.512578 -6.770078 2.035116 2.419820 -1.793457 -1.454400 -0.190985 -0.304956 1.016155 0.000000 0.000000 0.000000 -8.314023 -3.678160 -0.380070 -8.757809 -3.459638 -5.215208 11.309671 -19.501011 7.332561 0.000000 0.000000 0.000000 -9.233057 -3.660288 -0.768554 -0.687862 1.812537 -6.473104 0.844050 -3.120139 1.798675 8.279644 4.493366 -58.177099 -1.051277 -44.369083 0.293367 0.000000 0.000000 0.000000 -9.326162 -3.988950 -0.695171 -1.534564 -0.063262 5.664665 -3.118486 -4.090998 -2.302643 6.646193 15.574773 72.198781 -0.022047 45.931748 1.638675 0.000000 0.000000 0.000000 
12.530318 85.907059 -5.318951 0.000000 0.000000 0.000000 -1.336578 -54.520756 0.742019 -8.652555 19.717703 4.633327 36.608503 20.681150 2.993064 -13.248812 18.997326 -15.480357 -3.953859 -0.269663 -3.774189 0.000000 0.000000 0.000000 -1.032507 -54.031782 0.984382 -10.896078 -39.237405 -15.524013 26.307447 -7.625351 -5.898114 -18.904382 -7.551645 13.529290 -9.807163 2.065172 2.102848 0.000000 0.000000 0.000000 1.383385 -52.271014 1.761295 10.640408 -6.138936 1.728993 2.260655 -1.761090 -1.151812 -0.094544 -0.606103 1.020422 0.000000 0.000000 0.000000 -8.429047 -3.634118 -0.094995 -8.524903 -2.905390 -5.275914 11.506114 -18.319566 6.869818 0.000000 0.000000 0.000000 -9.338111 -3.630630 -0.458545 -0.669739 1.501150 -6.340869 1.036237 -2.910800 1.756167 7.421342 3.829320 -58.025455 -0.986580 -43.976118 0.454388 0.000000 0.000000 0.000000 -9.503115 -3.952446 -0.395724 -1.668672 0.496740 5.555250 -2.922769 -3.816375 -2.437581 6.111696 13.782150 72.239284 0.009067 43.655567 1.655759 0.000000 0.000000 0.000000 
11.897413 86.208435 -5.754253 0.000000 0.000000 0.000000 -2.406366 -56.932120 -0.291088 -10.106695 20.599275 6.949434 37.953401 19.916828 3.090503 -11.941799 17.852279 -15.347657 -5.982441 -0.218088 -4.213125 0.000000 0.000000 0.000000 -2.231844 -56.457353 -0.126580 -9.792073 -38.346304 -14.457477 24.507964 -7.637420 -5.637703 -18.678766 -7.270648 13.590384 -10.743310 2.099571 1.789148 0.000000 0.000000 0.000000 0.737702 -54.788936 1.223113 10.781902 -5.326681 1.385556 2.123950 -1.786617 -0.807262 0.013163 -0.917171 0.957671 0.000000 0.000000 0.000000 -8.492872 -3.634122 0.236471 -8.316723 -2.509982 -5.390973 11.577380 -17.385041 6.425322 0.000000 0.000000 0.000000 -9.387028 -3.667626 -0.101530 -0.683902 1.209045 -6.257596 1.305475 -2.347384 1.581281 6.627156 2.801423 -57.916569 -0.924832 -43.636135 0.582669 0.000000 0.000000 0.000000 -9.647769 -3.980713 -0.043622 -1.738391 0.890869 5.453784 -2.703741 -3.370566 -2.656099 5.644963 11.844115 72.205379 0.109788 41.099092 1.637463 0.000000 0.000000 0.000000 
11.186046 86.690567 -6.033791 0.000000 0.000000 0.000000 -3.079698 -58.917130 -1.187081 -12.289687 21.233110 9.574160 38.730506 18.681092 3.354238 -11.288523 16.133445 -14.490772 -7.880134 -0.283734 -4.569106 0.000000 0.000000 0.000000 -3.240437 -58.696173 -1.194426 -8.248599 -37.025684 -13.025346 22.666126 -7.832472 -5.347309 -18.790503 -7.048060 12.921248 -10.494441 2.114253 1.681823 0.000000 0.000000 0.000000 0.388119 -57.171135 0.863666 10.903715 -4.411810 1.029508 1.998005 -1.837187 -0.452035 0.094641 -1.123498 0.891447 0.000000 0.000000 0.000000 -8.524903 -3.649265 0.584817 -8.124333 -2.245146 -5.603446 11.547637 -16.654317 6.022471 0.000000 0.000000 0.000000 -9.413735 -3.728836 0.274264 -0.727523 1.020270 -6.213053 1.661516 -1.553601 1.378011 6.072402 1.357294 -57.782588 -0.932204 -43.335238 0.625131 0.000000 0.000000 0.000000 -9.760970 -4.038108 0.328616 -1.750225 1.102080 5.345770 -2.503118 -2.759157 -2.933677 5.266744 9.825209 72.078993 0.243173 38.387234 1.592164 0.000000 0.000000 0.000000 
10.423534 87.269600 -6.226742 0.000000 0.000000 0.000000 -3.362128 -60.579256 -1.791930 -15.097045 21.427263 12.219240 39.144384 16.939593 3.572494 -11.187340 13.911901 -13.213742 -8.781483 -0.460413 -4.773973 0.000000 0.000000 0.000000 -3.943109 -60.908526 -2.011631 -6.561242 -35.102794 -11.479969 20.947780 -8.154871 -5.077212 -19.023853 -7.064737 11.883289 -9.638092 2.078947 1.781322 0.000000 0.000000 0.000000 0.401546 -59.463654 0.819544 11.015681 -3.457548 0.672689 1.876481 -1.850050 -0.121599 0.102468 -1.274498 0.736897 0.000000 0.000000 0.000000 -8.562457 -3.626633 0.917390 -7.948144 -2.092641 -5.958920 11.463113 -16.090944 5.681212 0.000000 0.000000 0.000000 -9.431993 -3.755862 0.635993 -0.798769 0.969519 -6.196614 1.949153 -0.687968 1.107993 5.783379 -0.437582 -57.598316 -1.031642 -43.030205 0.574200 0.000000 0.000000 0.000000 -9.848288 -4.062143 0.684540 -1.708713 1.151259 5.230134 -2.373076 -2.167318 -3.202509 5.001097 7.843356 71.822602 0.383260 35.683104 1.527756 0.000000 0.000000 0.000000 
